<?xml version="1.0" standalone="no"?>
<!DOCTYPE svg PUBLIC "-//W3C//DTD SVG 20010904//EN"
 "http://www.w3.org/TR/2001/REC-SVG-20010904/DTD/svg10.dtd">
<svg version="1.0" xmlns="http://www.w3.org/2000/svg"
 width="556.000000pt" height="142.000000pt" viewBox="0 0 556.000000 142.000000"
 preserveAspectRatio="xMidYMid meet">

<g transform="translate(0.000000,142.000000) scale(0.100000,-0.100000)"
fill="#776767" stroke="none">
<path d="M276 1158 c4 -30 -7 -104 -35 -242 -59 -287 -54 -363 25 -401 43 -20
85 -22 222 -10 l92 8 0 321 c0 177 3 331 6 344 6 21 3 22 -42 22 l-49 0 3
-299 3 -299 -58 -8 c-81 -11 -130 -9 -148 6 -24 20 -18 95 20 273 28 132 53
275 55 320 0 4 -22 7 -50 7 l-50 0 6 -42z"/>
<path d="M655 983 c5 -10 34 -109 66 -221 32 -112 59 -208 61 -214 2 -5 31 86
64 203 34 118 64 222 69 232 6 14 2 17 -29 17 -22 0 -36 -5 -36 -12 1 -30 -56
-218 -65 -218 -10 0 -66 188 -65 218 0 7 -14 12 -36 12 -31 0 -35 -3 -29 -17z"/>
<path d="M1494 969 c3 -17 6 -128 6 -245 l0 -214 75 0 75 0 0 35 0 35 -51 0
-50 0 3 210 3 210 -34 0 c-32 0 -33 -1 -27 -31z"/>
<path d="M1770 982 c-47 -23 -60 -58 -60 -160 0 -75 3 -94 20 -115 50 -64 240
-64 290 0 17 22 20 40 20 123 0 89 -2 99 -24 123 -28 30 -43 34 -143 40 -51 3
-81 0 -103 -11z m198 -58 c19 -13 22 -24 22 -85 0 -106 -3 -109 -113 -109 -59
0 -97 4 -105 12 -17 17 -16 162 1 176 29 24 163 29 195 6z"/>
<path d="M2395 773 c-82 -124 -154 -227 -158 -230 -4 -2 -6 95 -5 216 l3 221
-40 0 -40 0 0 -340 0 -340 40 0 40 0 -3 86 -4 87 85 -5 c87 -6 160 -30 187
-63 9 -11 14 -35 13 -61 l-1 -44 42 0 43 0 -9 56 c-18 114 -67 161 -200 188
l-59 12 117 169 c64 94 126 180 137 193 l21 23 -29 28 -30 28 -150 -224z"/>
<path d="M1131 838 l-71 -148 -40 0 c-39 0 -40 -1 -40 -35 0 -31 3 -35 25 -35
l25 0 -25 -49 -25 -50 23 -3 c18 -2 27 7 49 47 l26 50 124 3 124 3 27 -56 c22
-45 31 -55 52 -55 l25 0 -25 50 c-31 61 -31 60 0 60 22 0 25 4 25 35 0 34 -1
35 -42 35 l-43 1 -71 147 -72 147 -71 -147z m119 -58 c22 -44 40 -82 40 -85 0
-3 -40 -5 -90 -5 l-90 0 42 85 c23 47 46 85 50 85 4 0 26 -36 48 -80z"/>
<path d="M2720 772 c-47 -23 -60 -58 -60 -160 0 -75 3 -94 20 -115 50 -64 240
-64 290 0 17 22 20 40 20 123 0 89 -2 99 -24 123 -28 30 -43 34 -143 40 -51 3
-81 0 -103 -11z m198 -58 c19 -13 22 -24 22 -85 0 -106 -3 -109 -113 -109 -59
0 -97 4 -105 12 -17 17 -16 162 1 176 29 24 163 29 195 6z"/>
<path d="M3054 759 c3 -17 6 -128 6 -245 l0 -214 75 0 75 0 0 35 0 35 -51 0
-50 0 3 210 3 210 -34 0 c-32 0 -33 -1 -27 -31z"/>
<path d="M3274 759 c3 -17 6 -128 6 -245 l0 -214 75 0 75 0 0 35 0 35 -51 0
-50 0 3 210 3 210 -34 0 c-32 0 -33 -1 -27 -31z"/>
<path d="M3880 545 l0 -245 28 0 c27 0 27 1 27 62 l0 63 60 -4 c101 -6 145
-32 145 -88 0 -30 3 -33 29 -33 l28 0 -8 48 c-13 70 -82 122 -163 122 -25 0
-19 13 61 122 122 165 115 153 95 171 -17 15 -25 7 -126 -133 -59 -83 -112
-150 -118 -150 -5 0 -8 62 -6 155 l3 155 -27 0 -28 0 0 -245z"/>
<path d="M4260 755 l0 -35 61 0 60 0 -3 -210 -3 -210 25 0 25 0 -3 210 -3 210
60 0 61 0 0 35 0 35 -140 0 -140 0 0 -35z"/>
<path d="M4605 545 l0 -245 30 0 30 0 0 245 0 245 -30 0 -30 0 0 -245z"/>
<path d="M4735 545 l0 -245 30 0 30 0 0 245 0 245 -30 0 -30 0 0 -245z"/>
<path d="M4865 773 c5 -10 34 -109 66 -221 32 -112 59 -208 61 -214 2 -5 31
86 64 203 34 118 64 222 69 232 6 14 2 17 -29 17 -22 0 -36 -5 -36 -12 1 -30
-56 -218 -65 -218 -10 0 -66 188 -65 218 0 7 -14 12 -36 12 -31 0 -35 -3 -29
-17z"/>
<path d="M5195 545 l0 -245 30 0 30 0 0 245 0 245 -30 0 -30 0 0 -245z"/>
<path d="M3737 766 c-102 -28 -181 -132 -175 -234 l3 -52 -37 0 c-37 0 -38 -1
-38 -35 l0 -35 50 0 c44 0 55 -4 84 -33 41 -41 86 -63 149 -72 l47 -7 0 30 c0
28 -2 30 -48 34 -26 3 -61 13 -77 24 l-29 19 57 3 57 3 0 34 0 35 -79 0 -79 0
-7 29 c-17 76 49 178 130 201 24 7 51 10 60 7 12 -5 15 1 15 28 0 40 -6 41
-83 21z"/>
<path d="M1770 545 l0 -35 105 0 105 0 0 35 0 35 -105 0 -105 0 0 -35z"/>
<path d="M2720 335 l0 -35 105 0 105 0 0 35 0 35 -105 0 -105 0 0 -35z"/>
</g>
</svg>
